<svg xmlns="http://www.w3.org/2000/svg" viewBox="0 0 100 100">
  <g stroke="#0b3d63" stroke-width="5" stroke-linejoin="round" stroke-linecap="round">
<path d="M16.69,82.17 Q7.37,74.71 12.96,65.38 Q18.56,52.32 40.95,51.39 Q59.6,50.46 65.2,61.65 Q67.06,72.84 63.33,82.17 Z" fill="#7a8a4a"/><circle cx="27.89" cy="62.58" r="2.8" fill="#6f7f42" stroke-width="3" stroke="#0b3d63"/><circle cx="39.08" cy="56.99" r="2.8" fill="#6f7f42" stroke-width="3" stroke="#0b3d63"/><circle cx="49.34" cy="57.92" r="2.8" fill="#6f7f42" stroke-width="3" stroke="#0b3d63"/><path d="M18.56,69.11 Q7.37,74.71 11.1,85.9 Q12.96,91.5 22.29,91.5 L44.68,91.5 Q46.54,87.77 40.95,86.84 L33.48,86.84 Q35.35,78.44 37.21,74.71 Q33.48,67.25 18.56,69.11 Z" fill="#6f7f42"/><path d="M54,82.17 L53.07,89.63 Q54,91.5 57.74,91.5 L67.06,91.5 Q68,87.77 63.33,87.77 L61.47,82.17 Z" fill="#6f7f42"/><path d="M55.87,57.92 Q68.93,48.59 81.99,57.92 Q91.32,66.31 85.72,75.64 Q73.59,77.51 61.47,73.78 Q55.87,67.25 55.87,57.92 Z" fill="#7a8a4a"/><path d="M85.72,70.98 Q74.53,70.05 63.33,66.31" fill="none" stroke-width="3.5"/><circle cx="68.93" cy="54.19" r="8.4" fill="#dcc45c" stroke="#0b3d63"/><path d="M68.93,49.06 Q72.66,54.19 68.93,59.32 Q65.2,54.19 68.93,49.06 Z" fill="#0b3d63" stroke="none"/>
  </g>
</svg>
