<svg xmlns="http://www.w3.org/2000/svg" viewBox="0 0 100 100">
  <g stroke="#0b3d63" stroke-width="5" stroke-linejoin="round" stroke-linecap="round">
<path d="M64,70 Q80,60 98,70 Q95,85 81,87 Q67,85 64,70 Z" fill="#cbb894"/><path d="M70,79 Q81,85 93,79 Q91,86 81,87 Q72,86 70,79 Z" fill="#3b9ee6" stroke-width="3"/><g transform="translate(-2,4)"><path d="M8,64 Q6,38 30,38 Q54,38 52,64 Z" fill="#6e7c3a"/><path d="M20,40 L21,64 M30,38 L30,64 M40,40 L39,64" stroke-width="3.5" fill="none"/><path d="M10,51 Q30,44 50,51" stroke-width="3.5" fill="none"/><path d="M14,64 L14,76 Q21,80 25,74 L25,64 Z" fill="#8a9a4c"/><path d="M36,64 L36,76 Q43,80 47,74 L47,64 Z" fill="#8a9a4c"/><g transform=""><path d="M52,52 Q68,48 68,59 Q66,68 52,66 Z" fill="#8a9a4c"/><circle cx="62" cy="55" r="3" fill="#0b3d63" stroke="none"/></g></g>  </g>
</svg>
